<svg width="1920" height="1080" viewBox="0 0 1920 1080" fill="none" xmlns="http://www.w3.org/2000/svg">
  <defs>
    <linearGradient id="bg-gradient" x1="0%" y1="0%" x2="100%" y2="100%">
      <stop offset="0%" style="stop-color:#B4B4B2;stop-opacity:1" />
      <stop offset="50%" style="stop-color:#FFFFFF;stop-opacity:0.8" />
      <stop offset="100%" style="stop-color:#21A691;stop-opacity:0.6" />
    </linearGradient>
    <pattern id="grid" width="100" height="100" patternUnits="userSpaceOnUse">
      <path d="M 100 0 L 0 0 0 100" fill="none" stroke="#27403E" stroke-width="0.5" opacity="0.1"/>
    </pattern>
  </defs>
  
  <!-- Background gradient -->
  <rect width="1920" height="1080" fill="url(#bg-gradient)"/>
  
  <!-- Subtle grid overlay -->
  <rect width="1920" height="1080" fill="url(#grid)"/>
  
  <!-- Financial-themed geometric shapes -->
  <circle cx="300" cy="200" r="150" fill="#21A691" opacity="0.1"/>
  <circle cx="1600" cy="800" r="200" fill="#87DF2C" opacity="0.08"/>
  <rect x="1400" y="100" width="300" height="300" rx="20" fill="#27403E" opacity="0.05"/>
  <polygon points="200,900 400,700 600,900" fill="#21A691" opacity="0.06"/>
  
  <!-- Abstract chart lines -->
  <path d="M 100 600 Q 400 400 700 500 T 1300 350" stroke="#21A691" stroke-width="3" fill="none" opacity="0.2"/>
  <path d="M 200 800 Q 500 600 800 700 T 1400 550" stroke="#87DF2C" stroke-width="2" fill="none" opacity="0.15"/>
  
  <!-- Subtle financial icons -->
  <g opacity="0.05" fill="#27403E">
    <!-- Dollar sign -->
    <path d="M1100 300 C1100 285 1115 285 1115 300 L1115 320 C1125 320 1135 325 1135 335 C1135 345 1125 350 1115 350 L1115 370 C1115 385 1100 385 1100 370 L1100 350 C1090 350 1080 345 1080 335 C1080 325 1090 320 1100 320 L1100 300 Z"/>
    
    <!-- Bar chart -->
    <rect x="500" y="400" width="15" height="60" />
    <rect x="520" y="380" width="15" height="80" />
    <rect x="540" y="420" width="15" height="40" />
    <rect x="560" y="360" width="15" height="100" />
  </g>
</svg>
